Coordinates
version=1
nRows=29
nColumns=28
inDegrees=yes

Units are S.I. units (second, meters, Newtons, ...)
If the header above contains a line with 'inDegrees', this indicates whether rotational values are in degrees (yes) or radians (no).

endheader
time	pelvis_tilt	pelvis_list	pelvis_rot	pelvis_tx	pelvis_ty	pelvis_tz	hip_flexion_r	hip_adduction_r	hip_rotation_r	knee_adduction_r	knee_rotation_r	knee_flexion_r	ankle_adduction_r	ankle_rotation_r	ankle_flexion_r	hip_flexion_l	hip_adduction_l	hip_rotation_l	knee_adduction_l	knee_rotation_l	knee_flexion_l	ankle_adduction_l	ankle_rotation_l	ankle_flexion_l	lumbar_extension	lumbar_bending	lumbar_rotation
16.82000	5175.411808	-4729.490483	4729.276456	0.000000	0.900000	0.000000	829.404262	-463.020612	439.080680	108.453152	-23.020237	296.328277	361.484422	112.259239	599.256233	2364.378270	289.213786	-489.916248	738.825274	928.322723	3963.205337	-413.534816	762.315520	1631.279869	0.000000	0.000000	0.000000
16.83000	5176.614100	-4735.768844	4718.147959	0.000000	0.900000	0.000000	834.034229	-457.675315	445.745747	108.820189	-24.523627	309.136092	359.740424	119.805759	610.780096	2365.033196	296.391300	-494.087678	730.231856	913.621439	3964.249268	-411.010938	759.870762	1637.771037	0.000000	0.000000	0.000000
16.84000	5179.150584	-4744.648232	4708.204196	0.000000	0.900000	0.000000	833.120605	-450.572128	462.183654	109.043736	-28.654868	314.970992	359.191382	118.490875	615.915197	2363.627813	291.640344	-505.392014	721.478842	914.044349	3964.132536	-407.374372	752.352150	1642.252586	0.000000	0.000000	0.000000
16.85000	5181.139979	-4752.485790	4701.460246	0.000000	0.900000	0.000000	833.028194	-446.532934	471.715679	110.815835	-31.827286	320.244379	359.415886	117.584014	614.857690	2370.607342	279.106479	-521.080512	719.995784	926.292835	3970.908289	-403.390002	750.481187	1638.279511	0.000000	0.000000	0.000000
16.86000	5182.319819	-4763.132738	4697.420609	0.000000	0.900000	0.000000	834.806934	-440.660555	471.062163	111.147312	-29.599151	327.609549	359.626243	120.109650	618.873345	2377.651602	276.946076	-519.521503	720.083370	923.403604	3981.496162	-403.868512	750.164015	1634.169748	0.000000	0.000000	0.000000
16.87000	5182.045432	-4780.554366	4698.400086	0.000000	0.900000	0.000000	834.892785	-428.193493	473.803281	111.000255	-30.695515	332.977020	369.219960	115.902060	621.496804	2383.421918	278.770156	-506.081488	716.126838	911.873422	3995.531676	-407.347998	747.889935	1636.597979	0.000000	0.000000	0.000000
16.88000	5176.814876	-4803.822446	4706.413457	0.000000	0.900000	0.000000	838.738810	-413.897352	476.361785	115.312609	-33.415709	336.611202	387.576430	105.058911	619.745798	2395.849353	269.970165	-499.122270	710.001836	913.683699	4014.149184	-411.884124	749.114525	1644.698651	0.000000	0.000000	0.000000
16.89000	5172.419566	-4828.618988	4719.531478	0.000000	0.900000	0.000000	849.118574	-398.851119	480.053298	120.181266	-35.783335	349.555077	415.910564	89.232754	609.932417	2407.232624	257.546430	-502.171619	697.308988	925.799215	4033.682983	-416.488383	751.963018	1657.922802	0.000000	0.000000	0.000000
16.90000	5171.002970	-4848.500018	4735.597899	0.000000	0.900000	0.000000	865.679384	-389.695945	495.225739	124.067376	-37.666255	366.116114	441.728922	60.855785	607.591296	2414.526147	247.856722	-514.917879	681.922275	942.639633	4049.117488	-418.919953	760.038991	1675.058450	0.000000	0.000000	0.000000
16.91000	5175.741634	-4866.493084	4755.529439	0.000000	0.900000	0.000000	877.272813	-385.435067	505.738184	128.031653	-46.102436	383.645798	463.502836	35.923023	609.304457	2411.151525	235.665176	-535.051187	663.581222	965.184777	4057.187931	-420.615093	773.094587	1694.777353	0.000000	0.000000	0.000000
16.92000	5178.134048	-4881.801252	4781.705157	0.000000	0.900000	0.000000	888.832275	-384.528633	502.304859	128.010285	-48.142624	394.450323	488.445344	8.285817	612.866335	2411.262880	229.094922	-559.464700	639.004155	989.484786	4063.551270	-422.233882	791.360060	1714.619180	0.000000	0.000000	0.000000
16.93000	5177.411220	-4895.456326	4808.555784	0.000000	0.900000	0.000000	896.834728	-382.786805	504.749465	123.002732	-50.702551	393.134391	539.765775	-35.896660	618.960503	2405.151806	228.229765	-572.000957	623.292639	999.053778	4056.733326	-430.330596	818.690801	1733.815515	0.000000	0.000000	0.000000
16.94000	5176.833070	-4908.412431	4836.034535	0.000000	0.900000	0.000000	898.916810	-388.931069	518.322468	119.988520	-40.287104	377.967619	610.403233	-96.504290	633.986535	2381.862548	235.242378	-576.548214	610.583871	997.607736	4029.432098	-449.551193	854.052720	1758.347668	0.000000	0.000000	0.000000
16.95000	5178.286500	-4917.326634	4867.123883	0.000000	0.900000	0.000000	895.934278	-408.799958	535.061261	123.266132	-17.351275	351.616897	685.165743	-170.529360	649.558434	2352.902687	230.161349	-589.548472	604.487370	1022.999739	3987.020905	-477.148264	888.371952	1769.724342	0.000000	0.000000	0.000000
16.96000	5179.220270	-4919.458523	4897.233217	0.000000	0.900000	0.000000	892.724417	-437.392318	557.743700	125.282308	19.301393	318.267382	757.584151	-272.820585	659.420458	2329.949131	221.075290	-615.204829	595.184810	1067.445969	3943.483932	-504.272292	916.654219	1770.652254	0.000000	0.000000	0.000000
16.97000	5169.485040	-4921.822667	4925.330143	0.000000	0.900000	0.000000	899.798775	-460.673540	589.237512	127.305542	49.010662	289.513588	830.688776	-378.992670	660.022093	2313.002200	227.964486	-624.227057	597.084450	1086.110305	3893.407047	-541.438912	958.429793	1765.581915	0.000000	0.000000	0.000000
16.98000	5153.778969	-4926.331773	4952.174704	0.000000	0.900000	0.000000	917.835263	-479.552920	604.519470	127.148450	87.586346	279.536091	902.152697	-465.344955	643.597127	2301.324287	240.771668	-624.281097	599.213415	1097.450293	3843.113381	-575.312367	991.706709	1753.720808	0.000000	0.000000	0.000000
16.99000	5147.759125	-4932.834473	4973.824737	0.000000	0.900000	0.000000	930.066452	-498.901325	608.891463	127.071030	127.872221	282.855761	1014.128383	-498.948344	608.729079	2278.752818	256.158785	-616.050237	594.786039	1100.337072	3795.096019	-600.817473	1009.059913	1736.295884	0.000000	0.000000	0.000000
17.00000	5141.032148	-4950.240054	4999.589976	0.000000	0.900000	0.000000	939.740981	-508.952637	603.359429	134.089851	142.123223	295.646214	1054.385667	-508.669622	572.587333	2245.744707	262.631510	-588.662362	612.663386	1092.544126	3738.846575	-629.909372	1035.915032	1714.246729	0.000000	0.000000	0.000000
17.01000	5130.422629	-4976.658463	5030.051304	0.000000	0.900000	0.000000	944.679539	-505.620288	584.554357	144.854597	160.880021	308.770069	1032.875980	-511.171709	559.466468	2207.540300	259.285862	-561.810045	616.841801	1094.725895	3676.454256	-655.812877	1044.927883	1688.630344	0.000000	0.000000	0.000000
17.02000	5124.385116	-5003.635040	5052.808345	0.000000	0.900000	0.000000	938.431019	-493.225054	566.231257	146.114668	151.583770	315.407044	986.659492	-433.511508	552.420292	2154.392679	259.311557	-544.777534	616.298962	1088.334285	3597.175356	-677.250358	1052.759106	1659.981681	0.000000	0.000000	0.000000
17.03000	5122.454792	-5025.615273	5075.980672	0.000000	0.900000	0.000000	937.335763	-489.519144	531.880570	150.661581	175.277514	336.262209	907.647308	-329.399739	553.334702	2091.077589	262.210616	-523.264019	616.074980	1071.339529	3500.434386	-685.779184	1053.944342	1618.156928	0.000000	0.000000	0.000000
17.04000	5118.385246	-5053.035465	5101.241538	0.000000	0.900000	0.000000	944.325728	-470.220606	516.316268	156.497617	181.484054	368.059991	826.246024	-230.988005	570.672572	2014.733131	261.546501	-485.202100	613.065326	1042.094520	3384.739033	-685.158878	1039.850533	1566.125015	0.000000	0.000000	0.000000
17.05000	5113.538642	-5082.584503	5136.385547	0.000000	0.900000	0.000000	945.410577	-447.181482	489.746335	160.821304	199.708746	382.885269	774.385646	-179.618979	585.376528	1924.348334	258.011443	-428.062296	607.161512	1009.271021	3246.885293	-682.795850	1012.928914	1503.154642	0.000000	0.000000	0.000000
17.06000	5112.464183	-5111.031211	5176.042765	0.000000	0.900000	0.000000	933.306247	-421.703604	466.786808	162.369860	212.571888	370.025934	751.990031	-173.008931	588.238681	1819.935033	250.253538	-369.071018	607.097372	975.724720	3084.931775	-680.136981	991.617561	1429.607859	0.000000	0.000000	0.000000
17.07000	5114.322020	-5137.938453	5213.700606	0.000000	0.900000	0.000000	919.368405	-399.412373	452.655513	164.815106	213.898379	352.257686	725.097011	-180.631411	580.046707	1704.238611	241.976448	-311.645957	598.898061	942.811007	2904.228565	-673.025796	960.312352	1344.157432	0.000000	0.000000	0.000000
17.08000	5111.277871	-5164.432001	5250.692051	0.000000	0.900000	0.000000	913.979754	-376.668235	426.291693	164.591085	206.280620	346.611505	693.607714	-173.289299	574.020407	1586.161159	237.734371	-251.449587	581.084071	901.648604	2708.211400	-666.031572	928.309237	1247.793229	0.000000	0.000000	0.000000
17.09000	5103.768566	-5193.361043	5286.908834	0.000000	0.900000	0.000000	912.291727	-355.788153	378.858796	164.920424	201.440051	351.634059	671.413473	-153.794716	572.628350	1466.393237	234.083624	-188.062697	561.411968	852.593035	2495.113064	-660.394579	901.643928	1138.241474	0.000000	0.000000	0.000000
17.10000	5098.939319	-5223.610866	5316.499951	0.000000	0.900000	0.000000	904.918663	-337.288426	326.349605	164.105297	207.408369	358.337373	662.752494	-134.201135	574.685671	1334.596128	233.084178	-116.579944	534.035154	791.601429	2265.635075	-655.056574	868.191428	1019.164179	0.000000	0.000000	0.000000
